{"title":"Stella (1990)-Bette Midler-SHAREGO","uid":4734779,"size":736385204,"categoryP":"video","categoryS":"movies","magnet":"?xt=urn:btih:01a44acd854558c165c88693e0c211fb1d68f69c&amp;dn=Stella+%281990%29-Bette+Midler-SHAREGO&amp;tr=udp%3A%2F%2Ftracker.openbittorrent.com%3A80&amp;tr=udp%3A%2F%2Fopen.demonii.com%3A1337&amp;tr=udp%3A%2F%2Ftracker.coppersurfer.tk%3A6969&amp;tr=udp%3A%2F%2Fexodus.desync.com%3A6969","seeders":2,"leechers":1,"uploader":"dodgerblue","files":3,"time":1235227490,"description":"Stella (1990)-Bette Midler-SHAREGO\nI.M.D.B [CODE]http://www.imdb.com/title/tt0100691/[/CODE]\n[IMG]http://www.impawards.com/1990/posters/stella.jpg[/IMG]\nCast\n (Cast overview, first billed only)\n\n\tBette Midler\t... \tStella Claire\n\n\tJohn Goodman\t... \tEd Munn\n\tTrini Alvarado\t... \tJenny Claire\n\n\tStephen Collins\t... \tStephen Dallas\n\tMarsha Mason\t... \tJanice Morrison\n\tEileen Brennan\t... \tMrs. Wilkerson\n\tLinda Hart\t... \tDebbie Whitman\n\n\tBen Stiller\t... \tJim Uptegrove\n\n\tWilliam McNamara\t... \tPat Robbins\n\tJohn Bell\t... \tBob Morrison\n\n\tAshley Peldon\t... \tJenny (age 3)\n\tAlisan Porter\t... \tJenny (age 8)\n\tKenneth Kimmins\t... \tSecurity Guard\n\tBob Gerchen\t... \tBartender\n\tWillie Rosario\t... \tDancing Waiter\nStella is a 1990 American drama film produced by Touchstone and released by Buena Vista Pictures. The screenplay by Robert Getchell is the third feature film adaptation of the 1920 novel Stella Dallas by Olive Higgins Prouty.\n\nThe title character is a vulgar and unfashionable single mother who, determined to give her daughter Jenny all the opportunities she never had, ultimately makes a selfless sacrifice to ensure her happiness. This film version differs from earlier versions in that Stella never marries the father of her child, and in fact, declines his proposal early in the film.\n\nJohn Erman directed a cast that included Bette Midler as Stella and Trini Alvarado as Jenny, with John Goodman, Stephen Collins, Marsha Mason, Eileen Brennan, Linda Hart, Ben Stiller, and William McNamara in supporting roles.\nFORMAT\nFormat                           : MPEG-4 Visual\nFormat settings, BVOP            : Yes\nFormat settings, QPel            : No\nFormat settings, GMC             : No warppoints\nFormat settings, Matrix          : Default\nCodec ID                         : DX50\nCodec ID/Hint                    : DivX 5\nDuration                         : 1h 49mn\nBit rate                         : 760 Kbps\nWidth                            : 512 pixels\nHeight                           : 288 pixels\nDisplay aspect ratio             : 16/9\nFrame rate                       : 29.970 fps\nResolution                       : 24 bits\nScan type                        : Progressive\nBits/(Pixel*Frame)               : 0.172\nStream size                      : 593 MiB (84%)\nWriting library                  : DivX 5.0.1 (UTC 2002-04-09)\nFormat                           : MPEG Audio\nFormat version                   : Version 1\nFormat profile                   : Layer 3\nCodec ID                         : 55\nCodec ID/Hint                    : MP3\nDuration                         : 1h 49mn\nBit rate mode                    : Constant\nBit rate                         : 128 Kbps\nMinimum bit rate                 : 128 Kbps\nChannel(s)                       : 2 channels\nSampling rate                    : 48.0 KHz\nResolution                       : 16 bits\nStream size                      : 99.9 MiB (14%)\nAlignment                        : Aligned on interleaves\nInterleave, duration             : 33 ms (1.00 video frame)\nInterleave, preload duration     : 504 ms\nWriting library                  : LAME3.97b\nEncoding settings                : CBR\n[img]http://1337x.org/torrentimg-12927.png[/img]","torrent":{"xt":"urn:btih:01a44acd854558c165c88693e0c211fb1d68f69c","amp;dn":"Stella+%281990%29-Bette+Midler-SHAREGO","amp;tr":["udp%3A%2F%2Ftracker.openbittorrent.com%3A80","udp%3A%2F%2Fopen.demonii.com%3A1337","udp%3A%2F%2Ftracker.coppersurfer.tk%3A6969","udp%3A%2F%2Fexodus.desync.com%3A6969"],"infoHash":"01a44acd854558c165c88693e0c211fb1d68f69c","infoHashBuffer":{"type":"Buffer","data":[1,164,74,205,133,69,88,193,101,200,134,147,224,194,17,251,29,104,246,156]},"announce":[],"urlList":[]}}